# xmcd CD database file
#
# Track frame offsets:
#	182
#	15555
#	23595
#	40555
#	58310
#	84240
#	104507
#	124335
#	140970
#	146702
#	165900
#	184537
#
# Disc length: 2710 seconds
#
# Revision: 0
# Processed by: cddbd v1.5.2PL0 Copyright (c) Steve Scherf et al.
# Submitted via: CDex 1.51
#
DISCID=9c0a940c
DTITLE=Sampler - Texas Guitar Greats
DYEAR=1991
DGENRE=Blues
TTITLE0=Clarence Green - Don´t Let The Blues Get You Down
TTITLE1=Gatemouth Brown - Hot Times Tonight
TTITLE2=Joey Long - O' Clock A.M.
TTITLE3=Ted Hawley - Woman So Fine
TTITLE4=Chris Holzhaus - Long Sad Letters
TTITLE5=Johnny Copeland - Come On Yàll
TTITLE6=Johnny Winter - Going Down Slown
TTITLE7=Ted Hawley and Weldon Bonner - Trying To Keep It Together
TTITLE8=Ted Hawley - Box Guitar Ride
TTITLE9=Freddie King - Boogie On Down
TTITLE10=Rockola - Diving Duck
TTITLE11=James Bolden - Deep Blue
EXTD=YEAR: 1991
EXTT0=
EXTT1=
EXTT2=
EXTT3=
EXTT4=
EXTT5=
EXTT6=
EXTT7=
EXTT8=
EXTT9=
EXTT10=
EXTT11=
PLAYORDER=
